<?xml version="1.0" encoding="utf-8"?>
<!-- Generator: Adobe Illustrator 26.3.1, SVG Export Plug-In . SVG Version: 6.00 Build 0)  -->
<svg version="1.1" id="Layer_1" xmlns="http://www.w3.org/2000/svg" xmlns:xlink="http://www.w3.org/1999/xlink" x="0px" y="0px"
	 viewBox="0 0 12 12" style="enable-background:new 0 0 12 12;" xml:space="preserve">
<style type="text/css">
	.st0{clip-path:url(#SVGID_00000113349070544808228400000012084971232732158647_);}
	.st1{fill-opacity:0.8;}
	.st2{fill-rule:evenodd;clip-rule:evenodd;fill-opacity:0.8;}
</style>
<g>
	<g>
		<defs>
			<rect id="SVGID_1_" y="0.7" width="12" height="12"/>
		</defs>
		<clipPath id="SVGID_00000055693252537468821060000016291556585205733024_">
			<use xlink:href="#SVGID_1_"  style="overflow:visible;"/>
		</clipPath>
		<g style="clip-path:url(#SVGID_00000055693252537468821060000016291556585205733024_);">
			<path class="st1" d="M6,8.2c0.8,0,1.5-0.7,1.5-1.5S6.8,5.2,6,5.2S4.5,5.9,4.5,6.7S5.2,8.2,6,8.2z"/>
			<path class="st2" d="M6,2.7c2.6,0,4.9,1.6,6,4c-1.1,2.4-3.4,4-6,4s-4.9-1.6-6-4C1.1,4.4,3.4,2.7,6,2.7z M6,9.7
				c-2.1,0-3.9-1.2-4.9-3c1-1.8,2.8-3,4.9-3s3.9,1.2,4.9,3C9.9,8.5,8.1,9.7,6,9.7z"/>
		</g>
	</g>
</g>
</svg>
