<?xml version="1.0" encoding="utf-8"?>
<!-- Generator: Adobe Illustrator 26.3.1, SVG Export Plug-In . SVG Version: 6.00 Build 0)  -->
<svg version="1.1" id="Layer_1" xmlns="http://www.w3.org/2000/svg" xmlns:xlink="http://www.w3.org/1999/xlink" x="0px" y="0px"
	 viewBox="0 0 12 12" style="enable-background:new 0 0 12 12;" xml:space="preserve">
<style type="text/css">
	.st0{fill-rule:evenodd;clip-rule:evenodd;fill-opacity:0.8;}
</style>
<path class="st0" d="M4.9,2.5C4.9,1.7,5.6,1,6.4,1h0.1C7.3,1,8,1.7,8,2.5V5h1.5C10.3,5,11,5.7,11,6.5v4c0,0.8-0.7,1.5-1.5,1.5H1v-1
	h2V7H1V6h3.4c0.3,0,0.5-0.2,0.5-0.5V2.5z M4,7v4h5.5c0.3,0,0.5-0.2,0.5-0.5V10H8.5V9H10V8H8.5V7H10V6.5C10,6.2,9.8,6,9.5,6H7V2.5
	C7,2.2,6.8,2,6.5,2H6.4C6.1,2,5.9,2.2,5.9,2.5v3C5.9,6.3,5.2,7,4.4,7H4z"/>
</svg>
